<?xml version="1.0" encoding="iso-8859-1"?>
<!-- Generator: Adobe Illustrator 16.0.0, SVG Export Plug-In . SVG Version: 6.00 Build 0)  -->
<!DOCTYPE svg PUBLIC "-//W3C//DTD SVG 1.1//EN" "http://www.w3.org/Graphics/SVG/1.1/DTD/svg11.dtd">
<svg version="1.1" id="Capa_1" xmlns="http://www.w3.org/2000/svg" xmlns:xlink="http://www.w3.org/1999/xlink" x="0px" y="0px"
	 width="400px" height="400px" viewBox="0 0 400 400" style="enable-background:new 0 0 400 400;" xml:space="preserve">
<g>
	<g>
		<path d="M347.766,335.73c0,18.91-12.314,35.001-29.35,40.669V246.652h-19.289c-25.395,0-46.053-20.658-46.053-46.053
			c0-25.396,20.658-46.055,46.053-46.055h19.289V23.601c17.033,5.668,29.35,21.758,29.35,40.669v90.276h21.422V64.27
			c0-35.493-28.771-64.27-64.27-64.27H95.075c-35.496,0-64.27,28.776-64.27,64.27v271.46c0,35.492,28.773,64.27,64.27,64.27h209.843
			c35.496,0,64.27-28.776,64.27-64.27v-89.078h-21.422V335.73z"/>
		<path d="M365.963,171.406h-62.354c-10.223,0-19.223,5.303-24.414,13.298c8.033,0.828,14.297,7.614,14.297,15.864
			c0,8.223-6.223,14.986-14.215,15.852c5.201,7.926,14.162,13.174,24.332,13.174h62.354c1.785,0,3.232-1.447,3.232-3.232V174.64
			C369.195,172.854,367.748,171.406,365.963,171.406z"/>
	</g>
</g>
<g>
</g>
<g>
</g>
<g>
</g>
<g>
</g>
<g>
</g>
<g>
</g>
<g>
</g>
<g>
</g>
<g>
</g>
<g>
</g>
<g>
</g>
<g>
</g>
<g>
</g>
<g>
</g>
<g>
</g>
</svg>
