<?xml version="1.0" encoding="iso-8859-1"?>
<!-- Generator: Adobe Illustrator 16.0.0, SVG Export Plug-In . SVG Version: 6.00 Build 0)  -->
<!DOCTYPE svg PUBLIC "-//W3C//DTD SVG 1.1//EN" "http://www.w3.org/Graphics/SVG/1.1/DTD/svg11.dtd">
<svg version="1.1" id="Capa_1" xmlns="http://www.w3.org/2000/svg" xmlns:xlink="http://www.w3.org/1999/xlink" x="0px" y="0px"
	 width="340.497px" height="340.496px" viewBox="0 0 340.497 340.496" style="enable-background:new 0 0 340.497 340.496;"
	 xml:space="preserve">
<g>
	<g>
		<polygon points="119.904,79.123 119.904,56.505 225.204,56.505 225.204,79.123 234.427,79.123 243.651,79.123 243.651,38.059 
			101.457,38.059 101.457,79.123 110.681,79.123 		"/>
		<path d="M49.191,298.145V95.711C20.548,105.85,0,133.097,0,165.213v63.444C0,260.765,20.555,288.002,49.191,298.145z"/>
		<path d="M340.497,228.651v-63.444c0-29.459-17.307-54.812-42.274-66.644v196.729C323.19,283.463,340.497,258.11,340.497,228.651z"
			/>
		<path d="M266.709,302.438c4.467,0,8.814-0.462,13.066-1.225V92.643c-4.252-0.763-8.6-1.222-13.066-1.222h-23.059h-9.224h-9.224
			h-105.3h-9.223h-9.224h-27.67c-2.078,0-4.113,0.141-6.149,0.306v210.399c2.036,0.168,4.071,0.306,6.149,0.306h192.922V302.438z
			 M259.582,232.284c0,17.264-13.997,31.255-31.255,31.255s-31.255-13.991-31.255-31.255s13.997-31.256,31.255-31.256
			S259.582,215.021,259.582,232.284z M171.094,133.367l12.646,37.915l-75.828,25.292l-12.646-37.911L171.094,133.367z"/>
	</g>
</g>
<g>
</g>
<g>
</g>
<g>
</g>
<g>
</g>
<g>
</g>
<g>
</g>
<g>
</g>
<g>
</g>
<g>
</g>
<g>
</g>
<g>
</g>
<g>
</g>
<g>
</g>
<g>
</g>
<g>
</g>
</svg>
